 <svg version="1.0" xmlns="http://www.w3.org/2000/svg" width="700.000000pt" height="787.000000pt" viewBox="0 0 700.000000 787.000000" preserveAspectRatio="xMidYMid meet">
<metadata>
Created by potrace 1.12, written by Peter Selinger 2001-2015
</metadata>
<g transform="translate(0.000000,787.000000) scale(0.100000,-0.100000)" fill="#000000" stroke="none">
<path d="M3135 7574 c-16 -3 -68 -13 -115 -23 -47 -11 -120 -22 -163 -25 -43
-4 -107 -16 -143 -27 -36 -11 -100 -26 -144 -34 -43 -8 -93 -21 -110 -30 -17
-9 -55 -20 -85 -26 -31 -6 -79 -21 -108 -34 -28 -14 -61 -25 -72 -25 -11 0
-38 -11 -60 -25 -22 -13 -47 -25 -56 -25 -10 0 -41 -13 -71 -28 -30 -16 -67
-32 -84 -36 -16 -4 -42 -18 -59 -30 -16 -13 -43 -26 -59 -30 -16 -4 -43 -18
-59 -32 -16 -13 -33 -24 -39 -24 -6 0 -26 -11 -44 -25 -18 -14 -43 -30 -56
-35 -33 -15 -133 -85 -202 -142 -19 -16 -38 -28 -43 -28 -5 0 -20 -12 -34 -27
-15 -16 -55 -53 -90 -83 -147 -128 -267 -259 -345 -376 -29 -44 -60 -87 -69
-94 -8 -7 -15 -18 -15 -24 0 -6 -14 -31 -30 -55 -17 -24 -30 -51 -30 -61 0 -9
-11 -31 -24 -49 -14 -19 -28 -48 -31 -65 -4 -17 -17 -49 -30 -71 -12 -22 -26
-56 -30 -75 -4 -19 -18 -55 -30 -80 -12 -25 -25 -71 -29 -102 -3 -32 -15 -79
-25 -105 -10 -27 -24 -100 -30 -163 -7 -63 -17 -141 -22 -173 -15 -86 -12
-376 5 -497 8 -58 17 -143 21 -190 4 -47 16 -107 26 -134 10 -27 21 -77 25
-110 4 -34 17 -79 29 -101 12 -22 28 -62 34 -89 7 -27 20 -65 31 -85 10 -20
21 -54 25 -74 4 -20 15 -47 25 -60 10 -12 23 -43 30 -67 7 -25 21 -57 31 -72
11 -15 25 -42 31 -60 6 -17 22 -48 35 -66 13 -19 23 -43 23 -52 0 -10 9 -29
20 -43 12 -14 26 -41 32 -59 6 -18 24 -53 40 -77 15 -25 28 -50 28 -57 0 -6 9
-22 20 -36 10 -14 41 -66 67 -116 26 -51 62 -118 80 -149 17 -32 43 -80 57
-108 13 -27 31 -61 40 -75 8 -14 25 -50 39 -80 27 -59 94 -202 133 -285 13
-28 24 -56 24 -63 0 -7 9 -30 20 -51 10 -21 26 -70 34 -109 8 -39 22 -84 30
-100 12 -24 16 -67 17 -194 1 -143 -2 -171 -20 -223 -12 -33 -24 -87 -28 -120
-3 -33 -14 -82 -25 -109 -10 -27 -24 -72 -30 -100 -6 -28 -21 -71 -34 -96 -12
-25 -26 -63 -30 -85 -4 -22 -16 -58 -26 -79 -11 -21 -24 -69 -29 -105 -5 -36
-18 -86 -28 -111 -10 -25 -22 -74 -25 -110 -4 -36 -18 -105 -31 -155 -13 -49
-29 -124 -35 -165 -6 -41 -20 -98 -30 -125 -10 -28 -21 -82 -25 -120 -4 -39
-13 -83 -21 -99 -8 -16 -12 -31 -9 -34 2 -2 811 -4 1797 -3 1279 2 1802 -1
1822 -9 21 -8 32 -8 40 0 7 7 11 111 11 308 1 163 5 312 9 330 15 57 65 80
198 92 62 5 160 10 218 10 144 0 315 18 375 40 28 9 72 21 100 25 27 4 60 16
74 26 13 11 44 25 69 31 24 6 46 17 49 25 3 7 20 21 37 30 31 16 128 111 177
174 15 19 29 48 33 65 4 17 15 40 25 51 10 10 24 50 31 88 7 39 22 93 34 120
19 46 21 69 21 267 l0 217 26 28 c15 15 41 54 57 86 26 48 30 67 27 110 -2 29
-8 68 -14 87 -17 56 -13 72 34 123 24 27 47 62 50 79 4 17 16 49 26 72 24 53
24 111 0 145 -11 15 -23 39 -26 54 -4 14 -13 31 -21 38 -36 30 0 62 104 90 37
11 81 19 99 19 20 0 37 7 45 19 8 11 27 25 43 32 88 38 174 136 199 224 9 33
22 70 28 82 8 17 7 34 -5 75 -9 29 -21 76 -27 103 -6 28 -21 66 -33 85 -12 19
-29 47 -37 61 -15 27 -101 157 -142 217 -33 47 -84 114 -105 136 -112 119
-253 316 -273 381 -7 22 -20 51 -29 65 -26 39 -22 302 5 395 23 82 24 165 1
245 -9 30 -21 103 -26 162 -6 59 -18 124 -26 145 -9 21 -23 76 -31 123 -9 47
-24 104 -34 126 -10 23 -21 61 -25 84 -4 23 -18 65 -30 94 -13 28 -27 69 -31
91 -3 22 -15 49 -24 60 -10 11 -23 39 -29 61 -6 23 -20 53 -31 67 -11 14 -20
29 -20 33 0 16 -91 192 -105 204 -8 7 -15 18 -15 25 0 7 -15 31 -32 53 -18 22
-42 55 -53 73 -36 60 -60 95 -77 115 -22 24 -64 72 -103 118 -16 20 -50 55
-74 78 -25 24 -71 69 -103 101 -32 31 -61 57 -64 57 -4 0 -21 12 -39 28 -57
46 -121 92 -132 92 -5 0 -17 8 -27 19 -9 10 -34 26 -56 36 -22 10 -40 22 -40
27 0 5 -21 18 -47 29 -27 11 -55 26 -63 33 -8 8 -33 19 -55 26 -22 7 -49 21
-60 31 -11 10 -40 22 -64 28 -24 5 -56 18 -71 29 -14 11 -46 23 -70 27 -25 4
-65 16 -90 26 -25 10 -79 26 -120 34 -41 9 -98 24 -127 35 -29 11 -93 22 -145
25 -51 4 -124 16 -163 28 -65 19 -99 20 -440 23 -203 1 -383 0 -400 -2z m1265
-720 c22 -9 45 -25 50 -35 6 -10 10 -58 10 -107 0 -60 4 -93 13 -99 6 -6 36
-13 64 -16 61 -7 192 -67 211 -97 20 -32 41 -24 113 45 60 58 71 65 108 65 39
0 47 -6 137 -97 139 -140 141 -152 49 -258 -36 -41 -65 -81 -65 -88 0 -8 10
-22 23 -30 13 -8 29 -34 36 -58 7 -24 21 -55 31 -69 10 -14 21 -48 24 -75 11
-77 12 -78 110 -76 48 1 95 -3 107 -9 37 -20 49 -70 49 -200 0 -101 -3 -127
-20 -160 -11 -22 -21 -41 -23 -41 -1 -1 -49 -4 -107 -8 l-105 -6 -12 -63 c-7
-34 -19 -72 -27 -85 -7 -12 -19 -38 -25 -58 -6 -20 -23 -47 -36 -59 -29 -27
-33 -68 -8 -77 29 -11 102 -95 108 -124 11 -47 -3 -69 -108 -176 -88 -90 -105
-103 -135 -103 -37 0 -109 50 -122 86 -13 33 -73 41 -113 15 -18 -11 -41 -25
-52 -29 -63 -28 -136 -56 -175 -67 l-45 -12 -5 -101 c-3 -63 -10 -106 -18
-114 -9 -9 -57 -14 -161 -16 -189 -5 -216 4 -226 73 -4 25 -5 68 -3 96 6 54
-1 64 -47 74 -17 4 -39 13 -51 20 -11 8 -40 18 -63 25 -23 6 -63 24 -88 41
-26 16 -57 29 -70 29 -14 0 -47 -24 -88 -61 -61 -58 -68 -61 -103 -56 -30 5
-55 25 -139 110 -92 93 -103 108 -103 140 0 28 9 47 42 84 22 26 50 54 61 62
24 17 17 60 -18 111 -13 19 -27 49 -31 65 -3 17 -15 44 -24 60 -10 17 -21 46
-25 65 -12 56 -20 61 -90 54 -72 -8 -130 8 -146 38 -7 13 -11 80 -11 176 1
199 0 197 140 197 l97 0 5 41 c4 23 13 52 22 66 9 13 23 48 32 77 8 29 27 66
42 83 36 44 27 76 -41 145 -47 48 -55 62 -55 94 0 34 9 47 105 143 93 94 108
106 139 106 51 0 76 -15 126 -76 48 -58 81 -69 100 -34 14 26 143 86 205 95
28 4 56 12 63 17 8 7 12 38 12 89 0 102 10 125 62 149 57 26 228 28 288 4z
m-1895 -1244 c30 -15 30 -16 35 -119 l5 -105 50 -11 c28 -7 70 -22 95 -33 25
-12 51 -22 58 -22 7 0 31 -13 54 -30 22 -16 48 -30 56 -30 8 0 43 27 78 60 66
63 98 74 147 49 37 -19 206 -197 213 -224 7 -28 -31 -93 -70 -118 -12 -8 -30
-30 -40 -49 l-18 -34 29 -49 c40 -69 93 -200 93 -229 0 -14 5 -28 11 -31 6 -4
53 -8 106 -9 126 -1 123 3 123 -190 0 -165 -4 -191 -28 -202 -10 -4 -57 -10
-107 -13 -89 -6 -90 -6 -99 -36 -5 -16 -19 -53 -32 -80 -13 -28 -24 -58 -24
-68 0 -23 -24 -70 -44 -86 -9 -8 -16 -28 -16 -46 0 -28 11 -44 60 -93 89 -87
87 -98 -41 -228 -147 -149 -170 -154 -268 -54 -62 64 -87 72 -116 40 -10 -11
-43 -29 -74 -41 -31 -11 -62 -25 -69 -31 -7 -6 -38 -16 -70 -22 l-57 -12 -3
-84 c-1 -47 -4 -95 -7 -106 -8 -36 -51 -45 -214 -46 -194 -2 -194 -2 -192 130
1 101 -2 106 -69 117 -25 4 -65 17 -90 30 -25 12 -57 25 -71 28 -15 4 -34 18
-43 32 -27 41 -57 32 -128 -35 -101 -97 -111 -95 -246 38 -139 137 -141 159
-28 274 31 31 56 61 56 66 0 6 -13 20 -29 31 -17 13 -32 35 -36 53 -4 18 -16
44 -26 58 -11 14 -25 57 -32 95 l-13 70 -104 5 c-99 5 -104 6 -124 33 -18 24
-22 47 -27 155 -4 108 -3 132 12 163 10 19 24 40 31 47 8 6 58 13 113 14 l100
3 12 69 c7 38 21 81 30 95 10 14 23 42 30 61 7 19 24 43 38 53 30 22 33 52 6
66 -38 21 -109 99 -115 128 -11 47 6 74 110 177 91 90 99 96 138 96 32 0 47
-6 67 -27 93 -99 127 -112 173 -64 16 16 47 34 72 40 24 6 59 20 76 31 18 11
44 20 58 20 14 0 36 7 49 16 18 13 21 22 15 43 -11 40 -4 133 11 158 17 25 48
29 220 28 76 0 119 -5 140 -15z m1771 -1815 c28 -14 59 -25 68 -25 24 0 58
-19 74 -42 7 -10 23 -18 35 -18 41 0 187 -173 187 -221 0 -7 9 -22 20 -34 12
-12 23 -40 26 -61 3 -21 10 -62 16 -91 8 -40 8 -56 -1 -67 -10 -12 -8 -20 9
-44 21 -28 22 -39 18 -170 -2 -95 -7 -145 -15 -154 -7 -6 -13 -28 -13 -48 0
-45 -24 -126 -43 -148 -8 -10 -18 -34 -21 -56 -4 -21 -18 -48 -30 -60 -13 -11
-26 -30 -30 -42 -17 -54 -181 -188 -247 -200 -19 -4 -54 -19 -79 -33 -45 -26
-47 -26 -255 -26 -208 0 -210 0 -255 26 -25 14 -65 29 -90 32 -32 4 -49 13
-63 31 -10 14 -24 26 -32 26 -7 0 -42 30 -78 66 -48 47 -68 76 -73 101 -4 19
-12 37 -19 40 -16 5 -45 74 -45 104 0 11 -10 33 -22 49 -18 26 -22 47 -27 172
-9 198 1 325 32 423 15 44 29 93 32 108 3 15 14 35 25 45 11 9 20 23 20 32 0
33 161 200 192 200 6 0 26 14 45 30 21 19 45 30 63 30 16 0 46 10 67 23 46 27
158 37 338 30 101 -3 128 -8 171 -28z m1654 0 c25 -12 62 -25 83 -28 43 -7
135 -64 166 -103 16 -21 21 -41 21 -91 0 -74 -12 -103 -41 -103 -24 0 -138 67
-156 91 -7 10 -32 18 -62 21 -33 3 -65 15 -91 33 -39 27 -41 27 -162 23 -109
-4 -128 -8 -172 -31 -27 -15 -60 -27 -73 -27 -14 0 -39 -13 -56 -30 -65 -63
-82 -77 -99 -83 -10 -4 -18 -13 -18 -21 0 -8 -10 -27 -23 -43 -13 -15 -30 -50
-37 -76 -7 -26 -22 -59 -32 -72 -18 -23 -19 -43 -20 -220 -1 -168 1 -198 16
-213 9 -10 24 -41 33 -68 9 -27 27 -62 40 -77 12 -16 23 -33 23 -38 0 -11 77
-89 88 -89 5 0 19 -11 31 -24 13 -13 39 -27 59 -31 20 -4 56 -18 81 -31 41
-21 58 -24 161 -24 102 1 121 3 165 25 28 14 60 25 72 25 34 0 42 27 34 110
-4 41 -5 130 -2 198 3 68 3 130 -2 137 -6 11 -38 13 -158 9 -208 -7 -239 5
-239 96 0 30 6 47 25 65 l24 25 263 0 c145 0 273 -3 284 -6 43 -11 46 -40 45
-388 -1 -188 -6 -336 -11 -347 -6 -10 -20 -21 -32 -24 -13 -4 -33 -16 -45 -27
-13 -12 -42 -22 -70 -26 -26 -2 -68 -16 -93 -31 -45 -26 -46 -26 -265 -26
-212 0 -221 1 -259 23 -21 13 -62 27 -90 33 -35 6 -57 17 -71 34 -12 14 -30
25 -41 25 -11 0 -34 13 -52 30 -18 16 -38 33 -45 37 -18 11 -97 114 -97 125 0
6 -13 26 -30 45 -19 22 -30 45 -30 64 0 18 -10 43 -24 59 -30 36 -38 109 -38
326 1 160 12 229 50 300 6 10 16 33 22 51 7 17 18 34 26 37 8 3 14 15 14 26 0
19 21 46 93 120 15 15 27 32 27 37 0 13 69 68 111 88 19 9 50 25 69 36 19 10
48 19 63 19 15 0 41 10 58 23 25 18 48 23 132 28 174 10 305 0 357 -26z"></path>
<path d="M4127 6315 c-77 -10 -116 -20 -137 -35 -16 -11 -44 -26 -62 -32 -18
-6 -42 -19 -53 -29 -104 -94 -175 -165 -175 -175 0 -7 -11 -25 -24 -41 -13
-15 -27 -39 -31 -53 -4 -14 -19 -54 -33 -90 -25 -60 -27 -76 -27 -210 1 -153
2 -159 71 -305 51 -107 124 -189 233 -261 69 -45 85 -54 104 -54 10 0 36 -9
59 -21 78 -40 351 -44 408 -7 14 9 44 21 68 28 24 6 64 27 90 46 167 124 205
170 270 319 23 54 33 94 40 175 12 139 -8 296 -44 349 -13 19 -24 43 -24 52 0
55 -190 244 -287 284 -20 9 -45 22 -53 30 -17 15 -110 31 -225 39 -33 3 -108
-2 -168 -9z"></path>
<path d="M2180 5086 c-76 -16 -164 -52 -204 -84 -16 -12 -32 -22 -36 -22 -10
0 -138 -128 -171 -171 -15 -19 -30 -45 -34 -59 -4 -14 -18 -39 -31 -55 -53
-69 -55 -463 -3 -536 10 -15 27 -46 38 -70 24 -56 137 -179 204 -223 110 -71
176 -97 277 -108 52 -5 140 -7 195 -3 82 5 111 11 161 36 33 16 65 29 71 29
10 0 32 16 134 95 66 51 149 170 182 259 45 123 49 147 44 281 -4 113 -8 137
-31 185 -14 30 -26 64 -26 76 0 11 -9 29 -21 40 -12 10 -29 35 -40 54 -20 38
-132 160 -147 160 -5 0 -26 14 -47 30 -21 17 -50 33 -64 37 -14 3 -49 16 -77
29 -42 20 -72 25 -180 29 -87 3 -150 0 -194 -9z"></path>
<path d="M3902 3633 c-18 -3 -49 -15 -69 -29 -20 -13 -43 -24 -53 -24 -9 0
-25 -9 -36 -21 -10 -12 -35 -29 -54 -38 -26 -12 -36 -24 -41 -50 -4 -18 -19
-44 -33 -58 -18 -16 -26 -34 -26 -56 0 -18 -12 -68 -26 -112 -24 -72 -26 -95
-26 -228 1 -98 5 -153 12 -162 7 -8 21 -54 32 -102 11 -52 27 -97 39 -109 11
-12 23 -34 28 -50 4 -17 19 -35 35 -43 16 -7 31 -21 33 -31 3 -12 18 -20 45
-24 23 -4 49 -17 62 -31 23 -24 27 -25 168 -25 132 0 146 2 163 20 10 11 37
26 59 32 23 7 50 20 61 31 11 10 41 38 66 61 28 26 50 56 54 74 3 17 16 43 27
57 17 22 22 50 31 173 14 193 -1 478 -25 496 -9 6 -26 33 -38 58 -23 50 -107
130 -150 143 -14 4 -45 18 -70 31 -39 21 -57 24 -140 22 -52 0 -110 -3 -128
-5z"></path>
</g>
</svg>